<svg width="150" height="60" viewBox="0 0 150 60" fill="none" xmlns="http://www.w3.org/2000/svg">
<path d="M2.41775 3.7709C6.61345 -4.71363 38.3809 3.7709 38.3809 3.7709C54.1802 7.19701 61.7856 6.67215 74.3441 3.7709C88.8768 0.911404 96.6154 1.70535 110.307 3.7709C110.307 3.7709 137.879 -4.42105 146.27 3.7709C154.662 11.9628 146.27 16.9365 146.27 16.9365C146.27 16.9365 141.475 26.5913 146.27 30.1022C151.066 33.613 146.27 43.2678 146.27 43.2678C146.27 43.2678 150.545 54.8658 146.27 56.4335C141.996 58.0011 118.605 60.7038 110.307 56.4335C98.3878 53.5229 90.3913 54.5285 74.3441 56.4335C57.261 63.5106 51.1983 58.1646 38.3809 56.4335C25.7587 52.2682 2.41775 56.4335 2.41775 56.4335C2.41775 56.4335 -2.38001 50.4166 2.41775 43.2678C5.18173 38.1263 5.24963 35.2437 2.41775 30.1022C-0.999852 25.3777 -0.605968 22.447 2.41775 16.9365C2.41775 16.9365 -1.77796 12.2554 2.41775 3.7709Z" fill="white"/>
</svg>
